<?xml version="1.0" encoding="UTF-8"?>
<svg xmlns="http://www.w3.org/2000/svg" xmlns:xlink="http://www.w3.org/1999/xlink" viewBox="0 0 1024 1024">
  <defs>
    <style>
      .uuid-3d68a1b9-d8d1-4e18-aecf-7ff3d6f4479c {
        fill: url(#uuid-872f5535-58f8-49c3-89d3-899774a97153);
      }

      .uuid-9a8a72d4-5070-4d89-a460-a5c297d51e90 {
        fill: url(#uuid-f01059a7-3b48-40ee-872a-25c2a74a6d57);
      }

      .uuid-6be74435-52b6-42c3-80e3-8f801c7275e3 {
        fill: url(#uuid-9a6d804a-29e6-4b1a-972d-e9b1c525b25c);
        stroke: #f2f2f2;
        stroke-miterlimit: 10;
        stroke-width: 8px;
      }

      .uuid-76f825d0-4b6f-4366-ba37-5821648a4194 {
        fill: url(#uuid-83ee05fe-f871-4a60-85f8-8c8f26b9deeb);
      }

      .uuid-e0db91f4-c6f1-44f6-8db8-efa9a7ee113d {
        fill: url(#uuid-4df2b7eb-a783-4264-9fee-b7a1fd5eac21);
      }

      .uuid-95dd7c23-2522-4cbc-8b8e-c09cb7a5598a {
        fill: #f2f2f2;
      }

      .uuid-6eda0737-b10d-4b31-937a-dc483b2c1dd5 {
        fill: url(#uuid-26a06a87-eb4b-4d50-a03f-726916822cce);
      }

      .uuid-a55ce640-a7f7-44a0-9a29-3b5997d7be58 {
        fill: url(#uuid-cc8f2975-41cd-4376-a4c3-08b4e1078cf4);
      }
    </style>
    <linearGradient id="uuid-9a6d804a-29e6-4b1a-972d-e9b1c525b25c" data-name="Gradient bez nazwy 322" x1="281.8" y1="276.27" x2="775.96" y2="699.41" gradientUnits="userSpaceOnUse">
      <stop offset="0" stop-color="#859999"/>
      <stop offset=".5" stop-color="#000"/>
      <stop offset="1" stop-color="#859999"/>
    </linearGradient>
    <linearGradient id="uuid-f01059a7-3b48-40ee-872a-25c2a74a6d57" data-name="Gradient bez nazwy 606" x1="355.69" y1="385.34" x2="411.81" y2="385.34" gradientUnits="userSpaceOnUse">
      <stop offset="0" stop-color="#7f9292" stop-opacity=".2"/>
      <stop offset=".06" stop-color="#798b8b" stop-opacity=".37"/>
      <stop offset=".18" stop-color="#6f8080" stop-opacity=".65"/>
      <stop offset=".29" stop-color="#697979" stop-opacity=".84"/>
      <stop offset=".4" stop-color="#657474" stop-opacity=".96"/>
      <stop offset=".51" stop-color="#647373"/>
      <stop offset=".58" stop-color="#5c6a6a"/>
      <stop offset=".71" stop-color="#475151"/>
      <stop offset=".86" stop-color="#242a2a"/>
      <stop offset="1" stop-color="#000"/>
    </linearGradient>
    <linearGradient id="uuid-4df2b7eb-a783-4264-9fee-b7a1fd5eac21" data-name="Gradient bez nazwy 555" x1="513.46" y1="357.26" x2="641.34" y2="357.26" gradientUnits="userSpaceOnUse">
      <stop offset="0" stop-color="#000"/>
      <stop offset=".03" stop-color="#080a0a"/>
      <stop offset=".19" stop-color="#333b3b"/>
      <stop offset=".33" stop-color="#556262"/>
      <stop offset=".47" stop-color="#6d7e7e"/>
      <stop offset=".59" stop-color="#7b8f8f"/>
      <stop offset=".68" stop-color="#819595"/>
      <stop offset=".73" stop-color="#819595" stop-opacity=".79"/>
      <stop offset=".82" stop-color="#839797" stop-opacity=".45"/>
      <stop offset=".9" stop-color="#849898" stop-opacity=".2"/>
      <stop offset=".96" stop-color="#849898" stop-opacity=".05"/>
      <stop offset="1" stop-color="#859999" stop-opacity="0"/>
    </linearGradient>
    <linearGradient id="uuid-872f5535-58f8-49c3-89d3-899774a97153" data-name="Gradient bez nazwy 612" x1="615.3" y1="385.34" x2="671.42" y2="385.34" gradientUnits="userSpaceOnUse">
      <stop offset="0" stop-color="#000"/>
      <stop offset=".11" stop-color="#282f2f"/>
      <stop offset=".22" stop-color="#4a5555"/>
      <stop offset=".33" stop-color="#627171"/>
      <stop offset=".42" stop-color="#708282"/>
      <stop offset=".48" stop-color="#768888"/>
      <stop offset=".57" stop-color="#768888" stop-opacity=".94"/>
      <stop offset=".69" stop-color="#788a8a" stop-opacity=".79"/>
      <stop offset=".84" stop-color="#7a8d8d" stop-opacity=".54"/>
      <stop offset="1" stop-color="#7e9191" stop-opacity=".2"/>
    </linearGradient>
    <linearGradient id="uuid-26a06a87-eb4b-4d50-a03f-726916822cce" data-name="Gradient bez nazwy 606" x1="378.62" y1="657.77" x2="452.27" y2="657.77" xlink:href="#uuid-f01059a7-3b48-40ee-872a-25c2a74a6d57"/>
    <linearGradient id="uuid-83ee05fe-f871-4a60-85f8-8c8f26b9deeb" data-name="Gradient bez nazwy 612" x1="585.02" y1="657.77" x2="653.85" y2="657.77" xlink:href="#uuid-872f5535-58f8-49c3-89d3-899774a97153"/>
    <linearGradient id="uuid-cc8f2975-41cd-4376-a4c3-08b4e1078cf4" data-name="Gradient bez nazwy 606" x1="428.12" y1="682.79" x2="517.7" y2="682.79" xlink:href="#uuid-f01059a7-3b48-40ee-872a-25c2a74a6d57"/>
  </defs>
  <g id="uuid-d02292e4-7812-44c3-af65-89960ec5948a" data-name="Warstwa 4">
    <rect width="1024" height="1024"/>
  </g>
  <g id="uuid-7b7feddf-f57c-4a45-9aff-552dc65a2310" data-name="Warstwa 5">
    <g>
      <path class="uuid-6be74435-52b6-42c3-80e3-8f801c7275e3" d="M780.22,289.15v248.33c.06,96.97-46.75,187.99-125.67,244.34l-121.66,86.66c-11.58,8.24-27.1,8.24-38.67,0l-121.67-86.66c-78.91-56.35-125.72-147.37-125.66-244.34v-248.33c-.04-10.09,4.5-19.65,12.33-26,7.84-6.35,18.14-8.8,28-6.67,71.99,15.09,147.02-.23,207.33-42.33,11.43-7.93,26.58-7.93,38,0,60.32,42.1,135.34,57.42,207.34,42.33,9.86-2.13,20.15.32,28,6.67,7.83,6.35,12.36,15.91,12.33,26Z"/>
      <path class="uuid-95dd7c23-2522-4cbc-8b8e-c09cb7a5598a" d="M727.17,339.34v198.93c.02,36.56-8.27,72.07-23.66,104.12-17.29,36.04-43.55,67.71-77.01,91.6l-53.47,38.09-43.99,31.34c-9.27,6.6-21.7,6.6-30.97,0l-43.99-31.34-53.47-38.09c-33.46-23.89-59.72-55.56-77.01-91.6-15.39-32.05-23.68-67.56-23.66-104.12v-198.93c-.03-8.08,3.6-15.74,9.88-20.83,6.28-5.08,14.53-7.05,22.43-5.34,57.67,12.09,117.77-.19,166.08-33.91,9.16-6.35,21.29-6.35,30.45,0,48.31,33.72,108.41,46,166.08,33.91,7.9-1.71,16.15.26,22.43,5.34,6.28,5.09,9.91,12.75,9.88,20.83Z"/>
      <path d="M440.76,391.34h145.58c7.72,0,7.73-12,0-12h-6.58c-7.72,0-7.73,12,0,12h6.58c7.72,0,7.73-12,0-12h-145.58c-7.72,0-7.73,12,0,12h0Z"/>
      <path d="M487.33,504.05c-22.39,22.39-44.78,44.78-67.16,67.16,5.3,5.3,10.61,10.61,15.91,15.91.63-.63,1.26-1.26,1.88-1.88,10.25-10.25-5.65-26.17-15.91-15.91-.63.63-1.26,1.26-1.88,1.88-10.25,10.25,5.65,26.17,15.91,15.91,22.39-22.39,44.78-44.78,67.16-67.16,10.25-10.25-5.65-26.17-15.91-15.91h0Z"/>
      <path d="M503.24,504.05c-22.39-22.39-44.78-44.78-67.16-67.16l-15.91,15.91c.63.63,1.26,1.26,1.88,1.88,10.25,10.25,26.17-5.65,15.91-15.91-.63-.63-1.26-1.26-1.88-1.88-10.25-10.25-26.17,5.65-15.91,15.91,22.39,22.39,44.78,44.78,67.16,67.16,10.25,10.25,26.17-5.65,15.91-15.91h0Z"/>
      <path d="M599.49,567.66h-76.95v23c.72,0,1.44,0,2.16,0,14.8,0,14.82-23,0-23-.72,0-1.44,0-2.16,0-14.8,0-14.82,23,0,23h76.95c14.8,0,14.82-23,0-23h0Z"/>
      <path class="uuid-9a8a72d4-5070-4d89-a460-a5c297d51e90" d="M355.69,391.34h56.12c7.72,0,7.73-12,0-12h-2.54c-7.72,0-7.73,12,0,12h2.54c7.72,0,7.73-12,0-12h-56.12c-7.72,0-7.73,12,0,12h0Z"/>
      <path class="uuid-e0db91f4-c6f1-44f6-8db8-efa9a7ee113d" d="M513.46,363.26h127.88c7.72,0,7.73-12,0-12h-5.78c-7.72,0-7.73,12,0,12h5.78c7.72,0,7.73-12,0-12h-127.88c-7.72,0-7.73,12,0,12h0Z"/>
      <path class="uuid-3d68a1b9-d8d1-4e18-aecf-7ff3d6f4479c" d="M615.3,391.34h56.12c7.72,0,7.73-12,0-12h-2.54c-7.72,0-7.73,12,0,12h2.54c7.72,0,7.73-12,0-12h-56.12c-7.72,0-7.73,12,0,12h0Z"/>
      <path d="M476.27,663.77h84.75c7.72,0,7.73-12,0-12h-3.83c-7.72,0-7.73,12,0,12h3.83c7.72,0,7.73-12,0-12h-84.75c-7.72,0-7.73,12,0,12h0Z"/>
      <path class="uuid-6eda0737-b10d-4b31-937a-dc483b2c1dd5" d="M378.62,663.77h73.65c7.72,0,7.73-12,0-12h-3.33c-7.72,0-7.73,12,0,12h3.33c7.72,0,7.73-12,0-12h-73.65c-7.72,0-7.73,12,0,12h0Z"/>
      <path class="uuid-76f825d0-4b6f-4366-ba37-5821648a4194" d="M585.02,663.77h68.83c7.72,0,7.73-12,0-12h-3.11c-7.72,0-7.73,12,0,12h3.11c7.72,0,7.73-12,0-12h-68.83c-7.72,0-7.73,12,0,12h0Z"/>
      <path class="uuid-a55ce640-a7f7-44a0-9a29-3b5997d7be58" d="M428.12,688.79h89.57c7.72,0,7.73-12,0-12h-4.05c-7.72,0-7.73,12,0,12h4.05c7.72,0,7.73-12,0-12h-89.57c-7.72,0-7.73,12,0,12h0Z"/>
    </g>
  </g>
</svg>