<?xml version="1.0" encoding="UTF-8"?>
<svg id="uuid-41a2cb67-964c-40f0-ae8b-db2195c5ec86" data-name="Warstwa 5" xmlns="http://www.w3.org/2000/svg" xmlns:xlink="http://www.w3.org/1999/xlink" viewBox="0 0 824.04 699.91">
  <defs>
    <style>
      .uuid-b9a5f331-fb9d-40b7-ac80-c7891b74df53 {
        fill: url(#uuid-f28194c0-912a-4475-bb42-76a20d3e56d3);
      }

      .uuid-2ef93d97-5927-429b-ac4e-004974e61d49 {
        fill: url(#uuid-f970248c-097e-420b-a019-d5f5100348a4);
      }

      .uuid-68050cd6-dff9-470c-ad50-50687b382274 {
        fill: url(#uuid-f812325f-5797-4128-9489-1b4df57880ae);
        stroke: #f2f2f2;
        stroke-miterlimit: 10;
        stroke-width: 8px;
      }

      .uuid-9323bacb-03ee-46e0-9c18-d6f3c1a2f819 {
        fill: url(#uuid-323ffb86-12c3-499d-99ad-f251a5d8f983);
      }

      .uuid-9a05b714-1b88-428b-95c9-682909ba99fc {
        fill: url(#uuid-e9fa41dc-c26d-407d-8085-baa9d287b935);
      }

      .uuid-2bd92335-fb41-458d-83da-5fbf50f6ea8e {
        fill: #f2f2f2;
      }

      .uuid-577c6867-5c9b-4e5c-b7f6-7397955c4cca {
        fill: url(#uuid-07431d7f-0db0-494f-be69-a06c383ae61d);
      }

      .uuid-9dc5996b-d169-4654-b739-c9845b404ae7 {
        fill: url(#uuid-d0af6b5d-457e-4941-937f-86e9172eaf96);
      }
    </style>
    <linearGradient id="uuid-f812325f-5797-4128-9489-1b4df57880ae" data-name="Gradient bez nazwy 322" x1="181.82" y1="72.07" x2="675.98" y2="495.21" gradientUnits="userSpaceOnUse">
      <stop offset="0" stop-color="#859999"/>
      <stop offset=".5" stop-color="#000"/>
      <stop offset="1" stop-color="#859999"/>
    </linearGradient>
    <linearGradient id="uuid-07431d7f-0db0-494f-be69-a06c383ae61d" data-name="Gradient bez nazwy 606" x1="255.71" y1="181.14" x2="311.83" y2="181.14" gradientUnits="userSpaceOnUse">
      <stop offset="0" stop-color="#7f9292" stop-opacity=".2"/>
      <stop offset=".06" stop-color="#798b8b" stop-opacity=".37"/>
      <stop offset=".18" stop-color="#6f8080" stop-opacity=".65"/>
      <stop offset=".29" stop-color="#697979" stop-opacity=".84"/>
      <stop offset=".4" stop-color="#657474" stop-opacity=".96"/>
      <stop offset=".51" stop-color="#647373"/>
      <stop offset=".58" stop-color="#5c6a6a"/>
      <stop offset=".71" stop-color="#475151"/>
      <stop offset=".86" stop-color="#242a2a"/>
      <stop offset="1" stop-color="#000"/>
    </linearGradient>
    <linearGradient id="uuid-323ffb86-12c3-499d-99ad-f251a5d8f983" data-name="Gradient bez nazwy 555" x1="413.48" y1="153.05" x2="541.36" y2="153.05" gradientUnits="userSpaceOnUse">
      <stop offset="0" stop-color="#000"/>
      <stop offset=".03" stop-color="#080a0a"/>
      <stop offset=".19" stop-color="#333b3b"/>
      <stop offset=".33" stop-color="#556262"/>
      <stop offset=".47" stop-color="#6d7e7e"/>
      <stop offset=".59" stop-color="#7b8f8f"/>
      <stop offset=".68" stop-color="#819595"/>
      <stop offset=".73" stop-color="#819595" stop-opacity=".79"/>
      <stop offset=".82" stop-color="#839797" stop-opacity=".45"/>
      <stop offset=".9" stop-color="#849898" stop-opacity=".2"/>
      <stop offset=".96" stop-color="#849898" stop-opacity=".05"/>
      <stop offset="1" stop-color="#859999" stop-opacity="0"/>
    </linearGradient>
    <linearGradient id="uuid-f970248c-097e-420b-a019-d5f5100348a4" data-name="Gradient bez nazwy 612" x1="515.32" y1="181.14" x2="571.44" y2="181.14" gradientUnits="userSpaceOnUse">
      <stop offset="0" stop-color="#000"/>
      <stop offset=".11" stop-color="#282f2f"/>
      <stop offset=".22" stop-color="#4a5555"/>
      <stop offset=".33" stop-color="#627171"/>
      <stop offset=".42" stop-color="#708282"/>
      <stop offset=".48" stop-color="#768888"/>
      <stop offset=".57" stop-color="#768888" stop-opacity=".94"/>
      <stop offset=".69" stop-color="#788a8a" stop-opacity=".79"/>
      <stop offset=".84" stop-color="#7a8d8d" stop-opacity=".54"/>
      <stop offset="1" stop-color="#7e9191" stop-opacity=".2"/>
    </linearGradient>
    <linearGradient id="uuid-f28194c0-912a-4475-bb42-76a20d3e56d3" data-name="Gradient bez nazwy 606" x1="278.64" y1="453.56" x2="352.29" y2="453.56" xlink:href="#uuid-07431d7f-0db0-494f-be69-a06c383ae61d"/>
    <linearGradient id="uuid-e9fa41dc-c26d-407d-8085-baa9d287b935" data-name="Gradient bez nazwy 612" x1="485.04" y1="453.56" x2="553.87" y2="453.56" xlink:href="#uuid-f970248c-097e-420b-a019-d5f5100348a4"/>
    <linearGradient id="uuid-d0af6b5d-457e-4941-937f-86e9172eaf96" data-name="Gradient bez nazwy 606" x1="328.15" y1="478.58" x2="417.72" y2="478.58" xlink:href="#uuid-07431d7f-0db0-494f-be69-a06c383ae61d"/>
  </defs>
  <path class="uuid-68050cd6-dff9-470c-ad50-50687b382274" d="M680.24,84.95v248.33c.06,96.97-46.75,187.99-125.67,244.34l-121.66,86.66c-11.58,8.24-27.1,8.24-38.67,0l-121.67-86.66c-78.91-56.35-125.72-147.37-125.66-244.34V84.95c-.04-10.09,4.5-19.65,12.33-26,7.84-6.35,18.14-8.8,28-6.67,71.99,15.09,147.02-.23,207.33-42.33,11.43-7.93,26.58-7.93,38,0,60.32,42.1,135.34,57.42,207.34,42.33,9.86-2.13,20.15.32,28,6.67,7.83,6.35,12.36,15.91,12.33,26Z"/>
  <path class="uuid-2bd92335-fb41-458d-83da-5fbf50f6ea8e" d="M627.19,135.14v198.93c.02,36.56-8.27,72.07-23.66,104.12-17.29,36.04-43.55,67.71-77.01,91.6l-53.47,38.09-43.99,31.34c-9.27,6.6-21.7,6.6-30.97,0l-43.99-31.34-53.47-38.09c-33.46-23.89-59.72-55.56-77.01-91.6-15.39-32.05-23.68-67.56-23.66-104.12v-198.93c-.03-8.08,3.6-15.74,9.88-20.83,6.28-5.08,14.53-7.05,22.43-5.34,57.67,12.09,117.77-.19,166.08-33.91,9.16-6.35,21.29-6.35,30.45,0,48.31,33.72,108.41,46,166.08,33.91,7.9-1.71,16.15.26,22.43,5.34,6.28,5.09,9.91,12.75,9.88,20.83Z"/>
  <path d="M340.78,187.14h145.58c7.72,0,7.73-12,0-12h-6.58c-7.72,0-7.73,12,0,12h6.58c7.72,0,7.73-12,0-12h-145.58c-7.72,0-7.73,12,0,12h0Z"/>
  <path d="M387.35,299.84c-22.39,22.39-44.78,44.78-67.16,67.16,5.3,5.3,10.61,10.61,15.91,15.91.63-.63,1.26-1.26,1.88-1.88,10.25-10.25-5.65-26.17-15.91-15.91-.63.63-1.26,1.26-1.88,1.88-10.25,10.25,5.65,26.17,15.91,15.91,22.39-22.39,44.78-44.78,67.16-67.16,10.25-10.25-5.65-26.17-15.91-15.91h0Z"/>
  <path d="M403.26,299.84c-22.39-22.39-44.78-44.78-67.16-67.16l-15.91,15.91c.63.63,1.26,1.26,1.88,1.88,10.25,10.25,26.17-5.65,15.91-15.91-.63-.63-1.26-1.26-1.88-1.88-10.25-10.25-26.17,5.65-15.91,15.91,22.39,22.39,44.78,44.78,67.16,67.16,10.25,10.25,26.17-5.65,15.91-15.91h0Z"/>
  <path d="M499.51,363.46h-76.95v23c.72,0,1.44,0,2.16,0,14.8,0,14.82-23,0-23-.72,0-1.44,0-2.16,0-14.8,0-14.82,23,0,23h76.95c14.8,0,14.82-23,0-23h0Z"/>
  <path class="uuid-577c6867-5c9b-4e5c-b7f6-7397955c4cca" d="M255.71,187.14h56.12c7.72,0,7.73-12,0-12h-2.54c-7.72,0-7.73,12,0,12h2.54c7.72,0,7.73-12,0-12h-56.12c-7.72,0-7.73,12,0,12h0Z"/>
  <path class="uuid-9323bacb-03ee-46e0-9c18-d6f3c1a2f819" d="M413.48,159.05h127.88c7.72,0,7.73-12,0-12h-5.78c-7.72,0-7.73,12,0,12h5.78c7.72,0,7.73-12,0-12h-127.88c-7.72,0-7.73,12,0,12h0Z"/>
  <path class="uuid-2ef93d97-5927-429b-ac4e-004974e61d49" d="M515.32,187.14h56.12c7.72,0,7.73-12,0-12h-2.54c-7.72,0-7.73,12,0,12h2.54c7.72,0,7.73-12,0-12h-56.12c-7.72,0-7.73,12,0,12h0Z"/>
  <path d="M376.29,459.56h84.75c7.72,0,7.73-12,0-12h-3.83c-7.72,0-7.73,12,0,12h3.83c7.72,0,7.73-12,0-12h-84.75c-7.72,0-7.73,12,0,12h0Z"/>
  <path class="uuid-b9a5f331-fb9d-40b7-ac80-c7891b74df53" d="M278.64,459.56h73.65c7.72,0,7.73-12,0-12h-3.33c-7.72,0-7.73,12,0,12h3.33c7.72,0,7.73-12,0-12h-73.65c-7.72,0-7.73,12,0,12h0Z"/>
  <path class="uuid-9a05b714-1b88-428b-95c9-682909ba99fc" d="M485.04,459.56h68.83c7.72,0,7.73-12,0-12h-3.11c-7.72,0-7.73,12,0,12h3.11c7.72,0,7.73-12,0-12h-68.83c-7.72,0-7.73,12,0,12h0Z"/>
  <path class="uuid-9dc5996b-d169-4654-b739-c9845b404ae7" d="M328.15,484.58h89.57c7.72,0,7.73-12,0-12h-4.05c-7.72,0-7.73,12,0,12h4.05c7.72,0,7.73-12,0-12h-89.57c-7.72,0-7.73,12,0,12h0Z"/>
</svg>